<svg xmlns="http://www.w3.org/2000/svg" width="212" height="65" viewBox="0 0 212 65" fill="none">
<path d="M59.48 50.376C58.072 50.376 56.696 50.184 55.352 49.8C54.072 49.416 52.76 49.096 51.416 48.84L51.608 48.456C51.416 47.944 50.936 47.624 50.168 47.496C49.464 47.368 48.696 47.272 47.864 47.208C47.032 47.208 46.392 47.144 45.944 47.016L45.464 46.44H45.176C44.472 46.44 43.864 46.248 43.352 45.864C42.84 45.544 42.36 45.16 41.912 44.712L40.472 44.904L40.088 44.232V43.752L39.608 43.272L39.224 43.752C38.584 43.624 37.848 43.336 37.016 42.888C36.248 42.44 35.832 41.864 35.768 41.16C35.448 40.84 34.936 40.232 34.232 39.336C33.592 38.376 32.92 37.416 32.216 36.456C31.576 35.432 31.096 34.696 30.776 34.248L31.256 33.384L30.968 32.808L30.584 32.904C30.2 32.584 29.976 32.136 29.912 31.56C29.912 30.984 29.944 30.472 30.008 30.024L29.24 29.256H28.952C28.888 29.704 28.696 30.248 28.376 30.888C28.12 31.528 27.704 31.848 27.128 31.848V31.176L26.552 30.408H26.456C26.2 30.408 25.976 30.536 25.784 30.792C25.656 30.984 25.656 31.24 25.784 31.56C25.592 31.816 25.4 32.072 25.208 32.328C25.016 32.52 24.92 32.776 24.92 33.096L25.4 33.96L26.168 33.768L26.552 33.96C26.552 34.152 26.168 34.664 25.4 35.496C24.632 36.328 23.832 37.352 23 38.568C22.168 39.72 21.656 40.936 21.464 42.216L20.312 42.888L21.08 43.368L21.464 44.136L20.792 45.384L21.176 45.768C21.24 46.088 21.304 46.408 21.368 46.728C21.496 47.112 21.656 47.432 21.848 47.688L22.328 47.88C22.968 47.88 23.704 47.656 24.536 47.208C25.432 46.76 26.296 46.216 27.128 45.576C28.024 45 28.728 44.552 29.24 44.232L29.624 44.712C29.56 44.968 29.208 45.448 28.568 46.152C27.992 46.92 27.352 47.656 26.648 48.36C25.944 49.064 25.464 49.608 25.208 49.992H23.96C23 49.992 21.848 49.832 20.504 49.512C19.16 49.256 17.944 48.776 16.856 48.072C15.832 47.432 15.32 46.504 15.32 45.288C15.32 43.816 15.704 42.024 16.472 39.912C17.24 37.736 18.168 35.496 19.256 33.192C20.408 30.888 21.56 28.712 22.712 26.664C23.928 24.616 24.92 22.92 25.688 21.576L25.4 21.096C24.824 21.096 24.44 20.712 24.248 19.944C24.12 19.176 24.024 18.376 23.96 17.544C23.96 16.712 23.8 16.232 23.48 16.104H23.384L23.192 15.432L23.576 14.376C24.472 14.056 25.4 13.768 26.36 13.512C27.32 13.192 28.312 13.032 29.336 13.032L28.952 13.224L30.584 13.8L35.288 6.6C34.584 6.6 33.272 6.76 31.352 7.08C29.496 7.4 27.352 7.816 24.92 8.328C22.552 8.84 20.216 9.448 17.912 10.152C15.672 10.792 13.784 11.496 12.248 12.264C10.776 12.968 9.976 13.672 9.848 14.376L10.616 14.664C11.064 14.408 11.512 14.28 11.96 14.28C12.472 14.216 12.984 14.184 13.496 14.184L14.84 13.704L14.744 13.896C13.336 14.792 12.056 15.816 10.904 16.968C9.752 18.056 8.6 19.208 7.448 20.424L6.872 20.616L6.488 21.288L5.432 21.48L5.336 21.672L5.432 23.4L2.168 21.768C1.912 21.064 1.528 20.424 1.016 19.848C0.568 19.272 0.344 18.6 0.344 17.832C2.776 14.824 5.688 12.552 9.08 11.016C12.472 9.416 15.832 7.816 19.16 6.216L19.064 6.312C19.192 6.376 19.384 6.44 19.64 6.504C19.896 6.568 20.088 6.6 20.216 6.6C20.728 6.6 21.24 6.504 21.752 6.312C22.264 6.056 22.776 5.864 23.288 5.736V5.928C23.864 5.8 24.44 5.672 25.016 5.544C25.592 5.352 26.2 5.128 26.84 4.872V5.064L28.28 4.584V4.488L28.76 4.584L28.664 4.488L29.72 4.008L30.296 4.2L30.104 4.008H30.392V4.2H31.832L32.504 3.912L32.696 3.624L35.288 3.72L35.384 3.624L36.248 3.24C36.696 3.24 37.112 3.24 37.496 3.24C37.944 3.176 38.392 3.144 38.84 3.144C39.288 2.632 39.672 2.024 39.992 1.32C40.376 0.615998 40.984 0.263998 41.816 0.263998C42.712 0.263998 43.512 0.455998 44.216 0.839999C44.92 1.224 45.688 1.416 46.52 1.416C46.648 1.8 47.16 2.184 48.056 2.568C48.952 2.888 49.944 3.176 51.032 3.432C52.184 3.624 53.272 3.784 54.296 3.912C55.32 3.976 56.056 4.008 56.504 4.008L60.632 5.256L60.92 5.16C61.496 5.16 62.296 5.544 63.32 6.312C64.344 7.08 65.336 7.912 66.296 8.808C67.32 9.704 68.056 10.376 68.504 10.824C68.632 11.272 68.76 11.752 68.888 12.264C69.016 12.776 69.208 13.256 69.464 13.704C69.208 16.136 68.76 17.96 68.12 19.176C67.48 20.328 66.552 21.16 65.336 21.672C64.12 22.184 62.456 22.728 60.344 23.304L59.096 23.208V23.688H58.904L58.52 23.304L54.68 24.456V23.88C53.464 24.712 52.536 25.128 51.896 25.128C51.32 25.128 50.392 25.192 49.112 25.32L49.016 25.128C48.76 25.384 48.504 25.544 48.248 25.608C47.992 25.608 47.704 25.608 47.384 25.608C46.36 25.608 45.4 25.864 44.504 26.376C43.672 26.888 42.776 27.08 41.816 26.952V27.432L41.336 27.336L40.952 26.952L40.76 27.336V27.432L40.568 27.336C40.44 27.272 40.312 27.24 40.184 27.24C40.056 27.176 39.928 27.144 39.8 27.144C39.48 27.144 39.16 27.208 38.84 27.336C38.52 27.4 38.2 27.432 37.88 27.432L37.976 26.856L37.784 26.952C37.208 26.824 36.6 26.824 35.96 26.952C35.384 27.08 34.808 27.208 34.232 27.336C35.832 30.664 37.336 33.416 38.744 35.592C40.152 37.704 41.784 39.624 43.64 41.352C45.56 43.08 48.024 45 51.032 47.112C52.696 47.24 54.36 47.528 56.024 47.976C57.688 48.488 59.384 48.744 61.112 48.744C62.072 48.744 63.032 48.648 63.992 48.456C64.952 48.264 65.912 48.168 66.872 48.168H67.256C66.872 48.488 66.168 48.808 65.144 49.128C64.12 49.512 63.064 49.8 61.976 49.992C60.888 50.248 60.056 50.376 59.48 50.376ZM33.272 25.128C37.048 24.424 40.76 23.656 44.408 22.824C48.12 21.992 51.736 20.936 55.256 19.656L55.352 19.56C56.504 19.112 57.72 18.6 59 18.024C60.28 17.384 61.4 16.584 62.36 15.624C63.32 14.664 63.8 13.512 63.8 12.168C63.544 11.592 63.192 10.984 62.744 10.344C62.296 9.704 61.688 9.32 60.92 9.192C60.408 8.936 59.672 8.616 58.712 8.232C57.816 7.784 56.888 7.368 55.928 6.984C54.968 6.6 54.168 6.376 53.528 6.312V6.408H53.24C52.856 6.216 52.504 6.12 52.184 6.12C51.928 6.12 51.672 6.152 51.416 6.216C51.16 6.28 50.872 6.312 50.552 6.312L49.784 5.736H48.632C47.928 5.736 47.224 5.736 46.52 5.736C45.816 5.672 45.112 5.608 44.408 5.544C43.576 6.312 42.52 7.4 41.24 8.808C40.024 10.152 38.84 11.56 37.688 13.032C36.6 14.44 35.832 15.688 35.384 16.776V17.736C34.68 18.056 34.104 18.6 33.656 19.368C33.208 20.136 32.824 20.84 32.504 21.48C33.016 22.824 33.272 24.04 33.272 25.128ZM60.92 9.192C61.304 9.384 61.528 9.512 61.592 9.576C61.656 9.576 61.496 9.48 61.112 9.288L60.92 9.192ZM30.296 43.848L29.624 43.656C29.624 43.336 29.816 43.048 30.2 42.792C30.648 42.472 31 42.28 31.256 42.216L31.544 42.408L30.296 43.848ZM64.352 45.672C63.776 45.672 63.072 45.288 62.24 44.52C61.472 43.752 60.832 43.176 60.32 42.792C60.192 41.96 59.968 41.224 59.648 40.584C59.328 39.88 59.168 39.144 59.168 38.376C59.168 37.224 59.584 35.88 60.416 34.344C61.312 32.744 62.432 31.176 63.776 29.64C65.184 28.104 66.592 26.824 68 25.8C69.472 24.776 70.784 24.264 71.936 24.264V24.072C72.832 24.264 73.664 24.84 74.432 25.8C75.264 26.76 75.68 27.656 75.68 28.488C75.68 29.256 75.2 30.056 74.24 30.888C73.344 31.656 72.224 32.392 70.88 33.096C69.6 33.736 68.32 34.248 67.04 34.632C65.824 35.016 64.864 35.208 64.16 35.208V35.4C63.712 36.104 63.264 37 62.816 38.088C62.432 39.112 62.24 40.072 62.24 40.968C62.24 41.288 62.336 41.64 62.528 42.024C62.976 42.344 63.552 42.504 64.256 42.504C64.96 42.44 65.536 42.44 65.984 42.504L66.08 42.6L66.368 42.12C67.2 42.056 68 41.864 68.768 41.544V40.968H69.344V40.68L69.728 40.776C70.048 40.648 70.272 40.52 70.4 40.392C70.592 40.2 70.816 40.04 71.072 39.912L71.648 40.2V40.104L73.376 38.472H73.472L73.76 38.664V38.568C74.592 37.8 75.488 37.096 76.448 36.456C77.408 35.816 78.112 34.984 78.56 33.96L79.616 33.192L79.808 33.384C79.808 33.832 79.648 34.248 79.328 34.632C79.008 35.016 78.624 35.272 78.176 35.4C77.664 36.616 76.896 37.64 75.872 38.472C74.912 39.304 73.92 40.168 72.896 41.064H72.608L72.512 41.544C71.296 42.376 70.016 43.272 68.672 44.232C67.392 45.192 65.952 45.672 64.352 45.672ZM66.176 33.384H66.368V33.192C66.816 33.064 67.584 32.68 68.672 32.04C69.824 31.4 70.912 30.728 71.936 30.024C72.96 29.256 73.504 28.712 73.568 28.392H73.664L73.568 27.912L73.664 27.432C73.6 27.432 73.472 27.432 73.28 27.432C73.088 27.368 72.928 27.336 72.8 27.336C71.968 27.912 71.136 28.456 70.304 28.968C69.472 29.48 68.64 29.992 67.808 30.504H67.616L67.52 31.272C67.136 31.528 66.848 31.848 66.656 32.232C66.464 32.552 66.304 32.936 66.176 33.384ZM80.768 33.096L80.192 32.904L80.096 32.328L81.056 32.04L81.152 32.328L80.768 33.096ZM75.8915 64.296C74.7395 64.296 73.5555 63.944 72.3395 63.24C71.1875 62.536 70.2275 61.64 69.4595 60.552C68.6915 59.464 68.3075 58.344 68.3075 57.192L68.5955 56.616C69.2995 57.32 69.8115 58.056 70.1315 58.824C70.3875 59.656 70.7715 60.36 71.2835 60.936C71.8595 61.512 72.8195 61.8 74.1635 61.8C74.4835 61.8 74.7715 61.768 75.0275 61.704C75.2835 61.64 75.5395 61.576 75.7955 61.512C76.3715 61.704 77.2355 61.32 78.3875 60.36C79.5395 59.464 80.7235 58.312 81.9395 56.904C83.2195 55.56 84.3075 54.216 85.2035 52.872C86.1635 51.592 86.6755 50.664 86.7395 50.088C87.8275 48.616 88.8195 47.048 89.7155 45.384C90.6115 43.784 91.4755 42.216 92.3075 40.68L92.4035 39.432L93.2675 39.048L93.1715 38.856V37.416L95.4755 33.384L95.3795 33C93.7795 34.984 92.1155 37.032 90.3875 39.144C88.7235 41.192 87.0275 43.208 85.2995 45.192C84.9155 45.576 84.4675 45.8 83.9555 45.864C83.4435 45.992 82.9315 46.056 82.4195 46.056C81.3955 46.056 80.6275 45.704 80.1155 45C79.6035 44.36 79.3475 43.56 79.3475 42.6C79.3475 41.384 79.5715 40.232 80.0195 39.144C80.5315 37.992 81.0755 36.936 81.6515 35.976L81.5555 35.688C82.0675 35.24 82.4515 34.632 82.7075 33.864C83.0275 33.032 83.3795 32.328 83.7635 31.752C82.0355 32.968 80.3395 34.344 78.6755 35.88C77.0755 37.416 75.4755 38.92 73.8755 40.392L73.7795 40.2C73.7795 40.008 74.1315 39.496 74.8355 38.664C75.6035 37.768 76.5315 36.744 77.6195 35.592C78.7715 34.44 79.9235 33.288 81.0755 32.136C82.2915 30.92 83.3475 29.864 84.2435 28.968C85.2035 28.072 85.8435 27.496 86.1635 27.24L89.5235 26.376C89.8435 26.248 90.3875 26.376 91.1555 26.76C91.9235 27.08 92.3075 27.432 92.3075 27.816C92.3075 28.2 91.9875 28.776 91.3475 29.544C90.7075 30.248 90.2275 30.76 89.9075 31.08H89.8115L90.0035 31.464L87.8915 33.576L87.7955 34.152L87.1235 34.344C86.9955 34.472 86.8355 34.664 86.6435 34.92C86.5155 35.112 86.5155 35.368 86.6435 35.688C85.9395 35.944 85.5875 36.264 85.5875 36.648C85.5875 36.776 85.5875 36.936 85.5875 37.128C85.6515 37.256 85.7155 37.416 85.7795 37.608L84.8195 38.184L85.0115 38.472C84.6915 38.6 84.5315 38.952 84.5315 39.528L84.6275 40.488L84.8195 40.776C84.8195 41.16 84.7555 41.512 84.6275 41.832C84.4995 42.152 84.4035 42.504 84.3395 42.888L84.5315 43.08C85.1075 43.016 86.0035 42.376 87.2195 41.16C88.4355 39.88 89.7155 38.344 91.0595 36.552C92.4035 34.76 93.5875 33.064 94.6115 31.464C95.6995 29.864 96.4035 28.712 96.7235 28.008C97.0435 27.432 97.3635 26.888 97.6835 26.376C98.0035 25.864 98.4835 25.608 99.1235 25.608H99.9875C100.5 25.608 101.044 25.768 101.62 26.088C102.26 26.408 102.58 26.888 102.58 27.528C102.58 27.848 102.324 28.616 101.812 29.832C101.3 31.048 100.66 32.488 99.8915 34.152C99.1875 35.816 98.4195 37.48 97.5875 39.144C96.7555 40.808 96.0195 42.248 95.3795 43.464C94.7395 44.68 94.2915 45.448 94.0355 45.768C93.9715 46.152 93.8435 46.696 93.6515 47.4C93.4595 48.168 93.1715 48.648 92.7875 48.84C91.8275 50.632 90.7075 52.264 89.4275 53.736C88.2115 55.272 87.0275 56.872 85.8755 58.536L84.2435 59.304C83.9875 59.56 83.7635 59.816 83.5715 60.072C83.3795 60.392 83.1235 60.648 82.8035 60.84H82.5155C81.5555 61.8 80.5635 62.6 79.5395 63.24C78.5795 63.944 77.3635 64.296 75.8915 64.296ZM101.943 46.152C101.239 46.152 100.727 45.832 100.407 45.192C100.151 44.616 100.023 44.04 100.023 43.464C100.023 41.8 100.407 40.072 101.175 38.28C102.007 36.488 102.807 34.856 103.575 33.384C104.407 31.848 104.823 30.664 104.823 29.832C104.823 29.448 104.599 29.256 104.151 29.256C103.959 29.256 103.671 29.32 103.287 29.448V29.064L105.591 26.376V26.28C105.911 25.96 106.199 25.64 106.455 25.32C106.711 25 106.967 24.712 107.223 24.456L108.087 23.88C108.791 23.944 109.463 24.136 110.103 24.456C110.807 24.712 111.255 25.256 111.447 26.088L111.351 26.184C111.415 26.696 111.191 27.24 110.679 27.816C110.167 28.392 109.719 28.84 109.335 29.16C108.951 29.864 108.503 30.536 107.991 31.176C107.543 31.752 107.127 32.392 106.743 33.096V34.056L106.359 34.824H106.167C105.975 35.208 105.783 35.624 105.591 36.072C105.463 36.52 105.399 37 105.399 37.512L105.879 38.28C106.071 38.088 106.423 37.8 106.935 37.416C107.511 36.968 108.023 36.52 108.471 36.072C108.919 35.624 109.143 35.304 109.143 35.112L110.199 34.152C110.519 33.192 111.223 32.168 112.311 31.08C113.399 29.928 114.327 29.032 115.095 28.392L115.383 27.624C115.767 27.432 116.151 27.208 116.535 26.952C116.983 26.696 117.431 26.568 117.879 26.568C118.391 26.568 118.839 26.696 119.223 26.952C119.671 27.208 120.119 27.464 120.567 27.72C120.567 27.976 120.567 28.296 120.567 28.68C120.631 29 120.663 29.32 120.663 29.64C120.663 30.664 120.375 31.624 119.799 32.52C119.223 33.416 118.647 34.344 118.071 35.304C117.495 36.264 117.207 37.448 117.207 38.856C117.207 39.048 117.207 39.496 117.207 40.2C117.271 40.84 117.367 41.48 117.495 42.12C117.687 42.696 117.975 42.984 118.359 42.984L121.431 41.352H121.623C121.751 40.968 121.975 40.616 122.295 40.296C122.679 39.976 123.095 39.816 123.543 39.816L123.639 39.912C123.639 40.232 123.351 40.712 122.775 41.352C122.263 41.992 121.687 42.6 121.047 43.176C120.471 43.752 120.055 44.168 119.799 44.424C119.543 44.488 119.255 44.552 118.935 44.616C118.615 44.616 118.295 44.68 117.975 44.808L117.687 44.328C116.279 44.2 115.095 43.72 114.135 42.888C113.239 41.992 112.791 40.84 112.791 39.432C112.791 38.984 112.887 38.184 113.079 37.032C113.271 35.816 113.495 34.632 113.751 33.48C114.071 32.328 114.295 31.528 114.423 31.08C113.655 31.592 112.919 32.392 112.215 33.48C111.511 34.504 110.871 35.368 110.295 36.072C109.655 36.328 108.983 37 108.279 38.088C107.639 39.112 106.967 40.264 106.263 41.544C105.559 42.76 104.855 43.848 104.151 44.808C103.447 45.704 102.711 46.152 101.943 46.152ZM130.241 42.792C129.281 42.792 128.481 42.568 127.841 42.12C127.201 41.608 126.625 40.936 126.113 40.104H125.921L126.017 39.336L125.825 39.432V38.856L126.305 38.472H126.113L125.537 37.992H125.729L125.921 37.608V37.416L125.729 36.936V36.744H125.537L124.193 36.072V35.784C123.745 35.336 123.361 34.856 123.041 34.344C122.785 33.768 122.657 33.16 122.657 32.52C122.657 31.624 123.041 30.568 123.809 29.352C124.641 28.136 125.601 27.048 126.689 26.088C127.841 25.128 128.865 24.648 129.761 24.648C130.209 24.2 130.849 23.976 131.681 23.976L131.969 23.688L132.449 23.784C133.153 23.464 133.921 23.368 134.753 23.496L134.849 23.304H140.225C140.737 23.304 141.377 23.432 142.145 23.688C142.977 23.944 143.617 24.136 144.065 24.264C144.641 24.904 145.409 25.416 146.369 25.8C147.329 26.12 147.809 26.824 147.809 27.912C147.809 29.256 147.425 30.536 146.657 31.752C145.889 32.968 144.993 33.928 143.969 34.632H143.873C143.809 34.824 143.489 35.144 142.913 35.592C142.401 35.976 141.825 36.392 141.185 36.84C140.609 37.224 140.225 37.512 140.033 37.704L139.745 38.568C139.297 38.568 138.881 38.728 138.497 39.048C138.113 39.304 137.921 39.656 137.921 40.104C138.049 40.36 138.337 40.584 138.785 40.776C139.233 40.904 139.617 40.968 139.937 40.968L139.553 41.16C137.505 41.16 135.937 41.32 134.849 41.64C133.761 41.896 132.897 42.152 132.257 42.408C131.617 42.664 130.945 42.792 130.241 42.792ZM132.833 40.296C134.817 39.336 136.193 38.6 136.961 38.088C137.793 37.512 138.369 37.032 138.689 36.648C139.009 36.2 139.425 35.624 139.937 34.92C140.449 34.216 141.377 33.224 142.721 31.944V31.752C142.465 31.752 142.241 31.72 142.049 31.656C142.113 31.08 142.241 30.536 142.433 30.024C142.689 29.448 142.817 28.84 142.817 28.2C142.817 27.048 142.369 26.12 141.473 25.416C140.641 24.648 139.681 24.264 138.593 24.264C138.017 24.264 137.409 24.328 136.769 24.456C136.193 24.584 135.649 24.744 135.137 24.936L133.889 24.84C132.865 25.224 131.713 25.8 130.433 26.568C129.217 27.336 128.161 28.264 127.265 29.352C126.369 30.376 125.921 31.528 125.921 32.808C125.921 33.448 126.049 33.992 126.305 34.44L126.689 34.536V34.248L127.169 33.96L127.841 32.52V32.136L128.417 31.272L128.609 31.368L128.897 30.792L129.377 30.504V30.408C129.569 30.344 129.761 30.28 129.953 30.216C130.209 30.152 130.433 30.056 130.625 29.928C130.625 29.416 130.849 29.128 131.297 29.064C131.745 28.936 132.001 28.648 132.065 28.2H132.641L133.313 27.432L133.697 27.72L134.561 27.144H135.425V27.432C134.465 27.688 133.409 28.392 132.257 29.544C131.105 30.632 130.145 31.848 129.377 33.192C128.609 34.536 128.257 35.752 128.321 36.84L128.417 38.568C129.121 38.888 129.825 39.272 130.529 39.72C131.233 40.104 132.001 40.296 132.833 40.296ZM130.049 40.968L130.625 40.68L128.417 39.624L128.225 39.72L128.609 40.584L130.049 40.968ZM147.213 50.28C145.997 50.28 145.101 49.928 144.525 49.224C144.013 48.52 143.757 47.592 143.757 46.44C143.757 46.056 143.853 45.384 144.045 44.424C144.237 43.4 144.493 42.312 144.813 41.16C145.197 40.008 145.581 39.016 145.965 38.184C146.413 37.352 146.861 36.936 147.309 36.936C147.437 36.232 147.693 35.336 148.077 34.248C148.525 33.16 149.069 32.36 149.709 31.848L150.285 31.656V31.464L151.245 30.408C151.437 30.152 151.533 30.056 151.533 30.12C151.597 30.12 151.629 30.12 151.629 30.12C151.629 29.544 151.725 28.968 151.917 28.392C152.621 27.944 153.133 27.336 153.453 26.568L153.549 25.896H153.741L155.757 21.864V21.768C155.757 21.448 155.885 21.224 156.141 21.096C156.461 20.904 156.557 20.68 156.429 20.424C156.941 19.528 157.741 18.312 158.829 16.776C159.981 15.176 161.197 13.512 162.477 11.784C163.821 10.056 165.101 8.456 166.317 6.984C167.533 5.512 168.525 4.456 169.293 3.816L169.773 3.624L170.445 2.28C170.957 2.152 171.501 1.96 172.077 1.704C172.653 1.384 173.261 1.224 173.901 1.224C174.477 1.224 175.181 1.384 176.013 1.704C176.909 1.96 177.677 2.344 178.317 2.856C178.957 3.368 179.245 3.976 179.181 4.68L179.085 5.544L178.989 5.736C178.413 6.76 177.645 7.624 176.685 8.328C176.109 10.248 175.053 12.264 173.517 14.376C171.981 16.424 170.253 18.44 168.333 20.424C166.413 22.408 164.525 24.232 162.669 25.896C160.813 27.56 159.245 28.936 157.965 30.024C156.749 31.112 156.077 31.816 155.949 32.136C155.565 32.2 154.989 32.52 154.221 33.096C153.517 33.608 152.845 34.184 152.205 34.824C151.629 35.464 151.341 35.944 151.341 36.264L150.957 37.128C149.165 38.216 147.853 39.688 147.021 41.544C146.253 43.4 145.869 45.352 145.869 47.4C145.869 48.296 146.093 48.872 146.541 49.128C146.989 49.384 147.245 49.768 147.309 50.28H147.213ZM154.989 30.696C155.885 29.992 157.133 28.968 158.733 27.624C160.333 26.216 162.029 24.648 163.821 22.92C165.677 21.192 167.405 19.4 169.005 17.544C170.669 15.688 172.013 13.928 173.037 12.264C174.061 10.6 174.573 9.16 174.573 7.944C174.573 7.816 174.509 7.656 174.381 7.464C174.317 7.208 174.253 7.016 174.189 6.888H174.093C173.709 6.888 172.973 7.4 171.885 8.424C170.861 9.384 169.613 10.696 168.141 12.36C166.733 13.96 165.261 15.72 163.725 17.64C162.189 19.496 160.749 21.32 159.405 23.112C158.125 24.904 157.069 26.472 156.237 27.816C155.405 29.16 154.989 30.12 154.989 30.696ZM178.964 49.992C178.068 49.992 177.364 49.544 176.852 48.648C176.34 47.752 176.084 46.92 176.084 46.152C176.084 45 176.084 43.88 176.084 42.792C176.148 41.64 176.244 40.52 176.372 39.432L176.18 39.336C176.5 38.504 176.884 37.448 177.332 36.168C177.844 34.824 178.1 33.832 178.1 33.192C177.78 33.512 177.46 33.864 177.14 34.248C176.82 34.568 176.532 34.92 176.276 35.304C175.828 35.752 175.412 36.264 175.028 36.84C174.708 37.416 174.292 37.96 173.78 38.472C173.012 38.664 172.308 39.24 171.668 40.2C171.028 41.096 170.292 41.96 169.46 42.792C168.692 43.624 167.604 44.04 166.196 44.04C165.748 44.04 165.172 44.008 164.468 43.944C163.828 43.816 163.348 43.624 163.028 43.368C162.196 43.176 161.588 42.952 161.204 42.696C160.884 42.376 160.628 41.8 160.436 40.968L160.82 39.72L160.532 38.952C160.852 37.928 161.076 37.192 161.204 36.744C161.396 36.296 161.652 35.912 161.972 35.592C162.356 35.272 162.964 34.792 163.796 34.152C163.86 33.832 164.02 33.608 164.276 33.48C164.596 33.288 164.884 33.16 165.14 33.096L165.236 32.616L166.196 31.464L166.484 31.656L167.06 30.792C167.508 30.472 167.956 30.28 168.404 30.216C168.916 30.088 169.396 29.896 169.844 29.64C169.972 29.128 170.356 28.648 170.996 28.2C171.7 27.752 172.404 27.304 173.108 26.856C173.812 26.408 174.196 25.992 174.26 25.608L174.644 25.704L176.276 24.648L176.756 24.84L178.196 23.976L179.924 23.88L180.212 24.168C180.212 24.616 179.892 25.096 179.252 25.608C178.676 26.056 178.164 26.248 177.716 26.184C176.564 26.44 175.22 27.08 173.684 28.104C172.148 29.128 170.644 30.344 169.172 31.752C167.764 33.096 166.58 34.536 165.62 36.072C164.66 37.544 164.18 38.92 164.18 40.2C164.18 41.416 164.82 42.024 166.1 42.024C167.06 42.024 168.244 41.512 169.652 40.488C171.06 39.4 172.372 38.184 173.588 36.84C174.804 35.496 175.604 34.408 175.988 33.576L177.62 32.328C177.812 31.752 178.324 31.08 179.156 30.312C179.988 29.48 180.532 28.776 180.788 28.2C181.044 27.752 181.172 27.336 181.172 26.952C181.236 26.504 181.556 26.216 182.132 26.088C182.516 25.704 182.932 25.288 183.38 24.84C183.892 24.392 184.084 23.848 183.956 23.208C184.276 22.76 184.596 22.312 184.916 21.864C185.3 21.416 185.62 20.968 185.876 20.52H186.164L186.644 20.136V20.04H187.124L187.412 19.56L187.316 18.504L187.796 18.216L187.7 17.928C187.7 17.864 187.828 17.64 188.084 17.256C188.34 16.808 188.596 16.36 188.852 15.912C189.108 15.464 189.236 15.176 189.236 15.048C189.236 14.408 188.98 14.088 188.468 14.088C188.276 14.088 188.052 14.12 187.796 14.184C187.604 14.248 187.412 14.312 187.22 14.376L187.124 13.896L191.348 9.768V9.672C192.116 9.096 192.82 8.488 193.46 7.848C194.164 7.144 194.932 6.536 195.764 6.024C196.404 6.216 197.14 6.44 197.972 6.696C198.868 6.952 199.508 7.432 199.892 8.136L200.084 9.384V9.576C200.084 9.832 199.636 10.504 198.74 11.592C197.844 12.68 196.724 13.96 195.38 15.432C194.036 16.904 192.66 18.344 191.252 19.752C189.908 21.16 188.756 22.344 187.796 23.304C186.9 24.264 186.388 24.744 186.26 24.744C186.196 25.192 186.068 25.672 185.876 26.184C185.748 26.632 185.62 27.112 185.492 27.624C184.98 27.752 184.532 28.072 184.148 28.584C183.828 29.096 183.508 29.576 183.188 30.024L183.284 30.216C183.284 30.408 183.028 31.016 182.516 32.04C182.004 33.064 181.396 34.344 180.692 35.88C179.988 37.416 179.38 39.048 178.868 40.776C178.356 42.44 178.1 44.04 178.1 45.576C178.1 46.28 178.196 47.016 178.388 47.784C178.644 48.616 178.996 49.288 179.444 49.8L178.964 49.992ZM183.315 50.664C182.931 50.088 182.739 49.512 182.739 48.936C182.739 48.488 182.835 48.072 183.027 47.688C183.155 47.304 183.315 46.952 183.507 46.632H183.603L183.507 46.536C183.955 45.896 184.659 45.064 185.619 44.04C186.643 43.016 187.731 42.088 188.883 41.256C190.035 40.424 190.963 39.976 191.667 39.912L192.243 39.528C192.563 39.016 193.043 38.536 193.683 38.088C194.387 37.576 194.995 37.16 195.507 36.84L196.083 36.936L195.987 36.552L196.275 36.36L195.987 35.4C195.347 35.144 194.515 34.824 193.491 34.44C192.531 34.056 191.635 33.576 190.803 33C190.035 32.36 189.651 31.624 189.651 30.792C189.651 30.152 190.227 29.256 191.379 28.104C192.531 26.952 193.907 25.8 195.507 24.648C197.171 23.432 198.739 22.408 200.211 21.576C201.747 20.744 202.835 20.328 203.475 20.328C204.307 20.008 204.915 19.496 205.299 18.792C205.683 18.088 206.035 17.448 206.355 16.872C206.739 16.232 207.251 15.912 207.891 15.912C208.723 15.912 209.427 16.328 210.003 17.16C210.643 17.992 211.091 18.728 211.347 19.368C211.283 19.624 211.091 19.848 210.771 20.04C210.515 20.232 210.323 20.488 210.195 20.808C209.427 21.448 208.787 22.248 208.275 23.208C207.827 24.104 207.379 25 206.931 25.896L205.203 26.856L204.915 26.472H204.819C204.563 26.792 204.307 27.08 204.051 27.336C203.795 27.592 203.603 27.88 203.475 28.2C203.219 28.456 202.963 28.84 202.707 29.352C202.515 29.8 202.227 30.056 201.843 30.12L201.747 29.928C202.067 28.904 202.387 27.88 202.707 26.856C203.027 25.768 203.379 24.712 203.763 23.688L203.955 23.592L204.147 22.152C203.507 22.152 202.899 22.312 202.323 22.632C201.747 22.952 201.107 23.08 200.403 23.016C200.147 23.208 199.699 23.592 199.059 24.168C198.483 24.744 197.907 25.256 197.331 25.704C196.755 26.152 196.307 26.408 195.987 26.472C195.603 27.176 195.027 27.848 194.259 28.488C193.555 29.128 193.203 29.896 193.203 30.792C193.203 31.176 193.395 31.432 193.779 31.56C194.163 31.624 194.515 31.656 194.835 31.656V32.232L195.027 32.136L196.563 32.52L196.851 32.232C197.683 32.424 198.707 32.744 199.923 33.192C201.203 33.576 202.323 34.12 203.283 34.824C204.307 35.528 204.819 36.456 204.819 37.608C204.819 38.056 204.723 38.504 204.531 38.952C204.339 39.4 204.083 39.848 203.763 40.296L202.227 41.832L199.827 41.64C199.379 41.96 198.611 42.248 197.523 42.504C196.435 42.696 195.411 42.888 194.451 43.08C193.555 43.272 193.107 43.496 193.107 43.752L192.243 42.984C191.923 43.56 191.443 43.848 190.803 43.848C190.163 43.848 189.523 43.848 188.883 43.848C188.307 43.848 187.635 44.2 186.867 44.904C186.163 45.608 185.523 46.376 184.947 47.208C184.371 48.104 184.019 48.84 183.891 49.416L183.315 50.664Z" fill="black"/>
</svg>